# xmcd
#
# Track frame offsets:
#	150
#	17793
#	36044
#	50166
#	64882
#	73971
#	90577
#	109831
#	120718
#	124445
#	143012
#	159319
#	179186
#	200556
#
# Disc length: 2830 seconds
#
# Revision: 1
# Processed by: cddbd v1.5.2PL0 Copyright (c) Steve Scherf et al.
# Submitted via: audiograbber 1.81.03
#
DISCID=d80b0c0e
DTITLE=Lauren`Sheehan - Two Wings
DYEAR=2005
DGENRE=Folk
TTITLE0=Two Wings
TTITLE1=Won't You Be Kind
TTITLE2=Lonesome Day Blues
TTITLE3=Are You Tired Of Me
TTITLE4=Farewell Swallowtail
TTITLE5=Drunk Man Blues
TTITLE6=Risin River Blues
TTITLE7=In My Girlish Days
TTITLE8=Delta Queen
TTITLE9=Kind Hearted Woman
TTITLE10=God's Gonna Ease My Troublin Mind
TTITLE11=Statesboro Blues
TTITLE12=Only One And Only
TTITLE13=Red Rocking Chair
EXTD=
EXTT0=
EXTT1=
EXTT2=
EXTT3=
EXTT4=
EXTT5=
EXTT6=
EXTT7=
EXTT8=
EXTT9=
EXTT10=
EXTT11=
EXTT12=
EXTT13=
PLAYORDER=
